<svg xmlns="http://www.w3.org/2000/svg" xml:space="preserve" viewBox="0 0 148 32" width="148" height="32">
    <polygon fill="#FF3454" points="0,0 32,0 32,32 0,32" />
    <g transform="translate(4.000000, 5.000000)">
        <path fill="#FFFFFF" d="M17.9,13.3c-1.3,0-2.4-1.1-2.4-2.4c0-1.3,1.1-2.4,2.4-2.4c1.3,0,2.4,1.1,2.4,2.4 C20.2,12.2,19.2,13.3,17.9,13.3 M17.9,5.5c-0.9,0-1.7,0.2-2.4,0.6V0.8h-3v10.1c0,3,2.4,5.4,5.3,5.4c3,0,5.3-2.4,5.3-5.4 S20.8,5.5,17.9,5.5" />
        <path fill="#FFFFFF" d="M6,17.3c-1.3,0-2.4-1.1-2.4-2.4c0-1.3,1.1-2.4,2.4-2.4c1.3,0,2.4,1.1,2.4,2.4 C8.4,16.3,7.3,17.3,6,17.3 M11.2,13.5c0-0.1,0-0.1-0.1-0.2c-0.1-0.5-0.2-1.1-0.2-1.7V4.8h-3v5.1C7.3,9.7,6.7,9.6,6,9.6 c-3,0-5.3,2.4-5.3,5.4c0,3,2.4,5.4,5.3,5.4c1.8,0,3.4-0.9,4.4-2.3c0.9,1,2,1.8,3.3,2.3l1.5-2.6v0C13.3,17,11.8,15.5,11.2,13.5" />
    </g>
    <g transform="translate(40.000000, 9.000000)">
        <path class="logo-case" fill="#1C2021" d="M105.6,2.5h0.2c0.3,0,0.5-0.1,0.5-0.3c0-0.2-0.1-0.3-0.4-0.3c-0.1,0-0.2,0-0.3,0V2.5L105.6,2.5z M105.6,3.6h-0.5v-2c0.2,0,0.4-0.1,0.8-0.1c0.4,0,0.5,0.1,0.7,0.1c0.1,0.1,0.2,0.2,0.2,0.4c0,0.2-0.2,0.4-0.4,0.5v0 c0.2,0.1,0.3,0.2,0.4,0.5c0.1,0.3,0.1,0.4,0.1,0.5h-0.5c-0.1-0.1-0.1-0.3-0.2-0.5c0-0.2-0.2-0.3-0.4-0.3h-0.2V3.6L105.6,3.6z M104.3,2.5c0,0.9,0.7,1.6,1.6,1.6c0.9,0,1.5-0.7,1.5-1.6c0-0.9-0.6-1.6-1.5-1.6C105,0.9,104.3,1.7,104.3,2.5L104.3,2.5z M107.9,2.5c0,1.1-0.9,2-2,2c-1.1,0-2-0.9-2-2c0-1.1,0.9-2,2-2C107,0.6,107.9,1.4,107.9,2.5L107.9,2.5z" />
        <path class="logo-case" fill="#1C2021" d="M0.4,1.3h4.5c0.8,0,1.7,0.1,2.5,0.3S9,2.2,9.7,2.7c0.7,0.5,1.2,1.2,1.6,2s0.6,1.8,0.6,3 c0,1.1-0.2,2.1-0.6,2.9c-0.4,0.8-1,1.5-1.6,2C9,13,8.3,13.4,7.4,13.6C6.6,13.9,5.8,14,4.9,14H0.4V1.3z M4.6,12 c0.6,0,1.2-0.1,1.8-0.2c0.6-0.1,1.1-0.4,1.6-0.7s0.9-0.8,1.2-1.3c0.3-0.6,0.4-1.3,0.4-2.1c0-0.9-0.1-1.7-0.4-2.2S8.4,4.4,7.9,4 s-1-0.5-1.6-0.7S5.2,3.2,4.6,3.2H2.7V12H4.6z M14.2,1.3h8.4v2h-6.2v3.2h5.9v1.9h-5.9V12h6.5v2h-8.8V1.3z M23.6,1.3h2.5l3.5,9.8h0.1 l3.5-9.8h2.4L30.6,14h-2L23.6,1.3z M36.9,1.3h5c0.5,0,1,0.1,1.4,0.2s0.9,0.3,1.3,0.6c0.4,0.3,0.7,0.6,0.9,1s0.3,0.9,0.3,1.5 c0,0.7-0.2,1.3-0.6,1.8s-0.9,0.8-1.6,1v0c0.8,0.1,1.5,0.4,2,0.9s0.8,1.2,0.8,2.1c0,0.7-0.1,1.3-0.4,1.8c-0.3,0.5-0.6,0.9-1.1,1.1 c-0.5,0.3-1,0.5-1.5,0.6c-0.6,0.1-1.2,0.2-1.8,0.2h-4.6V1.3z M39.2,6.4h2c0.8,0,1.3-0.1,1.7-0.5c0.4-0.3,0.6-0.7,0.6-1.3 c0-0.6-0.2-1-0.6-1.2c-0.4-0.2-1-0.4-1.9-0.4h-1.8V6.4z M39.2,12.1h2c0.3,0,0.6,0,0.9-0.1c0.3,0,0.6-0.1,0.9-0.3 c0.3-0.1,0.5-0.3,0.7-0.6c0.2-0.3,0.3-0.6,0.3-1c0-0.7-0.2-1.1-0.7-1.4c-0.5-0.3-1.1-0.4-2.1-0.4h-2.1V12.1z M48.5,1.3H53 c0.6,0,1.2,0.1,1.7,0.2s1.1,0.3,1.5,0.6c0.4,0.3,0.8,0.7,1.1,1.1c0.3,0.5,0.4,1,0.4,1.7c0,0.9-0.3,1.7-0.8,2.3 c-0.5,0.6-1.2,1-2.1,1.2l3.4,5.7h-2.7l-3-5.4h-1.7V14h-2.3V1.3z M52.7,6.7c0.3,0,0.6,0,1-0.1c0.3,0,0.6-0.1,0.9-0.3 c0.3-0.1,0.5-0.3,0.6-0.6c0.2-0.2,0.3-0.6,0.3-0.9c0-0.3-0.1-0.6-0.2-0.9c-0.2-0.2-0.4-0.4-0.6-0.5c-0.2-0.1-0.5-0.2-0.8-0.3 c-0.3,0-0.6-0.1-0.9-0.1h-2.1v3.6H52.7z M59.9,1.3h2.3V14h-2.3V1.3z M64.9,1.3h4.5c0.8,0,1.7,0.1,2.5,0.3s1.6,0.6,2.3,1.1 s1.2,1.2,1.6,2c0.4,0.8,0.6,1.8,0.6,3c0,1.1-0.2,2.1-0.6,2.9c-0.4,0.8-1,1.5-1.6,2s-1.4,0.9-2.3,1.1c-0.8,0.2-1.7,0.4-2.5,0.4h-4.5 V1.3z M69.1,12c0.6,0,1.2-0.1,1.8-0.2c0.6-0.1,1.1-0.4,1.6-0.7c0.5-0.3,0.9-0.8,1.2-1.3c0.3-0.6,0.4-1.3,0.4-2.1 c0-0.9-0.1-1.7-0.4-2.2s-0.7-1-1.2-1.3c-0.5-0.3-1-0.5-1.6-0.7c-0.6-0.1-1.2-0.2-1.8-0.2h-1.9V12H69.1z M89.8,13.3 c-0.6,0.3-1.4,0.6-2.1,0.7c-0.8,0.2-1.7,0.3-2.7,0.3c-1,0-2-0.2-2.8-0.5c-0.9-0.3-1.6-0.8-2.2-1.4c-0.6-0.6-1.1-1.3-1.4-2.1 s-0.5-1.7-0.5-2.7c0-1,0.2-1.9,0.5-2.8C79,4,79.4,3.3,80.1,2.7c0.6-0.6,1.3-1,2.2-1.3S84,0.9,85,0.9c1,0,2,0.1,2.8,0.4 c0.8,0.3,1.5,0.7,2,1.2l-1.6,1.7c-0.3-0.4-0.8-0.7-1.4-0.9S85.7,2.9,85,2.9c-0.7,0-1.3,0.1-1.8,0.4c-0.5,0.2-1,0.6-1.4,1 s-0.7,0.9-0.9,1.5s-0.3,1.2-0.3,1.8c0,0.7,0.1,1.3,0.3,1.9c0.2,0.6,0.5,1.1,0.9,1.5s0.9,0.7,1.4,1c0.6,0.2,1.2,0.4,1.9,0.4 c1,0,1.8-0.1,2.5-0.4V8.6H85V6.7h4.9V13.3z M92.6,1.3h8.4v2h-6.2v3.2h5.9v1.9h-5.9V12h6.5v2h-8.8V1.3z" />
    </g>
</svg>
